<mxfile host="app.diagrams.net" agent="Mozilla/5.0 (Windows NT 10.0; Win64; x64) AppleWebKit/537.36 (KHTML, like Gecko) Chrome/135.0.0.0 Safari/537.36" version="26.2.12">
  <diagram name="PÃ¡gina-1" id="IlDYEZVzDNYxJnUhvPW0">
    <mxGraphModel>
      <root>
        <mxCell id="0" />
        <mxCell id="1" parent="0" />
        <mxCell id="2" value="User-Reported Incidents Waze" style="whiteSpace=wrap;strokeWidth=2;" vertex="1" parent="1">
          <mxGeometry x="293" y="8" width="260" height="78" as="geometry" />
        </mxCell>
        <mxCell id="3" value="User" style="rounded=1;arcSize=20;strokeWidth=2" vertex="1" parent="1">
          <mxGeometry x="156" y="158" width="62" height="54" as="geometry" />
        </mxCell>
        <mxCell id="4" value="Waze System" style="rounded=1;arcSize=20;strokeWidth=2" vertex="1" parent="1">
          <mxGeometry x="706" y="158" width="123" height="54" as="geometry" />
        </mxCell>
        <mxCell id="5" value="Incident Report" style="rounded=1;arcSize=20;strokeWidth=2" vertex="1" parent="1">
          <mxGeometry x="8" y="285" width="141" height="54" as="geometry" />
        </mxCell>
        <mxCell id="6" value="Incident Status Update" style="rounded=1;arcSize=20;strokeWidth=2" vertex="1" parent="1">
          <mxGeometry x="199" y="285" width="194" height="54" as="geometry" />
        </mxCell>
        <mxCell id="7" value="Verification of Incident" style="rounded=1;arcSize=20;strokeWidth=2" vertex="1" parent="1">
          <mxGeometry x="442" y="285" width="195" height="54" as="geometry" />
        </mxCell>
        <mxCell id="8" value="Incident Database" style="rounded=1;arcSize=20;strokeWidth=2" vertex="1" parent="1">
          <mxGeometry x="688" y="285" width="159" height="54" as="geometry" />
        </mxCell>
        <mxCell id="9" value="Users Nearby" style="rounded=1;arcSize=20;strokeWidth=2" vertex="1" parent="1">
          <mxGeometry x="897" y="285" width="123" height="54" as="geometry" />
        </mxCell>
        <mxCell id="10" value="Valid Incident" style="rounded=1;arcSize=20;strokeWidth=2" vertex="1" parent="1">
          <mxGeometry x="380" y="411" width="128" height="54" as="geometry" />
        </mxCell>
        <mxCell id="11" value="Invalid Incident" style="rounded=1;arcSize=20;strokeWidth=2" vertex="1" parent="1">
          <mxGeometry x="566" y="411" width="141" height="54" as="geometry" />
        </mxCell>
        <mxCell id="12" value="Close Incident" style="rounded=1;arcSize=20;strokeWidth=2" vertex="1" parent="1">
          <mxGeometry x="378" y="538" width="131" height="54" as="geometry" />
        </mxCell>
        <mxCell id="13" value="Feedback to User" style="rounded=1;arcSize=20;strokeWidth=2" vertex="1" parent="1">
          <mxGeometry x="559" y="538" width="154" height="54" as="geometry" />
        </mxCell>
        <mxCell id="14" value="Reports" style="curved=1;startArrow=none;endArrow=block;exitX=0.03;exitY=1;entryX=0.5;entryY=0.01;" edge="1" parent="1" source="2" target="3">
          <mxGeometry relative="1" as="geometry">
            <Array as="points">
              <mxPoint x="187" y="122" />
            </Array>
          </mxGeometry>
        </mxCell>
        <mxCell id="15" value="Handles" style="curved=1;startArrow=none;endArrow=block;exitX=1;exitY=0.86;entryX=0.5;entryY=0.01;" edge="1" parent="1" source="2" target="4">
          <mxGeometry relative="1" as="geometry">
            <Array as="points">
              <mxPoint x="767" y="122" />
            </Array>
          </mxGeometry>
        </mxCell>
        <mxCell id="16" value="Submits" style="curved=1;startArrow=none;endArrow=block;exitX=0;exitY=0.84;entryX=0.5;entryY=0;" edge="1" parent="1" source="3" target="5">
          <mxGeometry relative="1" as="geometry">
            <Array as="points">
              <mxPoint x="78" y="249" />
            </Array>
          </mxGeometry>
        </mxCell>
        <mxCell id="17" value="Receives Feedback" style="curved=1;startArrow=none;endArrow=block;exitX=1;exitY=0.84;entryX=0.5;entryY=0;" edge="1" parent="1" source="3" target="6">
          <mxGeometry relative="1" as="geometry">
            <Array as="points">
              <mxPoint x="296" y="249" />
            </Array>
          </mxGeometry>
        </mxCell>
        <mxCell id="18" value="Processes" style="curved=1;startArrow=none;endArrow=block;exitX=0;exitY=0.82;entryX=0.5;entryY=0;" edge="1" parent="1" source="4" target="7">
          <mxGeometry relative="1" as="geometry">
            <Array as="points">
              <mxPoint x="540" y="249" />
            </Array>
          </mxGeometry>
        </mxCell>
        <mxCell id="19" value="Updates" style="curved=1;startArrow=none;endArrow=block;exitX=0.5;exitY=1.01;entryX=0.5;entryY=0;" edge="1" parent="1" source="4" target="8">
          <mxGeometry relative="1" as="geometry">
            <Array as="points" />
          </mxGeometry>
        </mxCell>
        <mxCell id="20" value="Notifies" style="curved=1;startArrow=none;endArrow=block;exitX=1;exitY=0.88;entryX=0.5;entryY=0;" edge="1" parent="1" source="4" target="9">
          <mxGeometry relative="1" as="geometry">
            <Array as="points">
              <mxPoint x="958" y="249" />
            </Array>
          </mxGeometry>
        </mxCell>
        <mxCell id="21" value="Confirms" style="curved=1;startArrow=none;endArrow=block;exitX=0.29;exitY=1;entryX=0.5;entryY=0;" edge="1" parent="1" source="7" target="10">
          <mxGeometry relative="1" as="geometry">
            <Array as="points">
              <mxPoint x="444" y="375" />
            </Array>
          </mxGeometry>
        </mxCell>
        <mxCell id="22" value="Rejects" style="curved=1;startArrow=none;endArrow=block;exitX=0.71;exitY=1;entryX=0.5;entryY=0;" edge="1" parent="1" source="7" target="11">
          <mxGeometry relative="1" as="geometry">
            <Array as="points">
              <mxPoint x="637" y="375" />
            </Array>
          </mxGeometry>
        </mxCell>
        <mxCell id="23" value="Triggers" style="curved=1;startArrow=none;endArrow=block;exitX=0.5;exitY=1;entryX=0.5;entryY=-0.01;" edge="1" parent="1" source="10" target="12">
          <mxGeometry relative="1" as="geometry">
            <Array as="points" />
          </mxGeometry>
        </mxCell>
        <mxCell id="24" value="Provides" style="curved=1;startArrow=none;endArrow=block;exitX=0.5;exitY=1;entryX=0.5;entryY=-0.01;" edge="1" parent="1" source="11" target="13">
          <mxGeometry relative="1" as="geometry">
            <Array as="points" />
          </mxGeometry>
        </mxCell>
      </root>
    </mxGraphModel>
  </diagram>
</mxfile>
